<svg width="96" height="17" viewBox="0 0 96 17" fill="none" xmlns="http://www.w3.org/2000/svg">
<path d="M8.72727 0L11.0357 5.20317L17.0274 5.6535L12.4623 9.31956L13.857 14.8011L8.72727 11.8636L3.59751 14.8011L4.99222 9.31956L0.427143 5.6535L6.41888 5.20317L8.72727 0Z" fill="#EF7F3C"/>
<path d="M28.364 0L30.6724 5.20317L36.6641 5.6535L32.0991 9.31956L33.4938 14.8011L28.364 11.8636L23.2342 14.8011L24.6289 9.31956L20.0639 5.6535L26.0556 5.20317L28.364 0Z" fill="#EF7F3C"/>
<path d="M48.0007 0L50.3091 5.20317L56.3008 5.6535L51.7358 9.31956L53.1305 14.8011L48.0007 11.8636L42.8709 14.8011L44.2657 9.31956L39.7006 5.6535L45.6923 5.20317L48.0007 0Z" fill="#EF7F3C"/>
<path d="M67.6355 0L69.9439 5.20317L75.9356 5.6535L71.3705 9.31956L72.7652 14.8011L67.6355 11.8636L62.5057 14.8011L63.9004 9.31956L59.3353 5.6535L65.3271 5.20317L67.6355 0Z" fill="#EF7F3C"/>
<path d="M87.2722 0L89.5806 5.20317L95.5723 5.6535L91.0073 9.31956L92.402 14.8011L87.2722 11.8636L82.1424 14.8011L83.5371 9.31956L78.9721 5.6535L84.9638 5.20317L87.2722 0Z" fill="#EF7F3C"/>
</svg>
