<svg width="35" height="33" viewBox="0 0 35 33" fill="none" xmlns="http://www.w3.org/2000/svg">
<g opacity="0.95">
<path d="M12.9875 10.6551C13.1365 10.507 13.2546 10.3309 13.3352 10.137C13.4157 9.94304 13.4571 9.73509 13.4569 9.52509C13.4568 9.31509 13.415 9.10721 13.3341 8.91341C13.2533 8.71961 13.1348 8.54373 12.9857 8.39589C12.8365 8.24808 12.6596 8.13123 12.4651 8.0521C12.2705 7.97297 12.0623 7.93312 11.8523 7.93482C11.6423 7.93655 11.4347 7.9798 11.2415 8.06209C11.0483 8.1444 10.8733 8.26412 10.7266 8.41437C9.40056 9.75389 8.50142 11.4565 8.14284 13.3069C7.78426 15.1573 7.98232 17.0726 8.71202 18.8104C9.44171 20.5483 10.6702 22.0308 12.2424 23.0706C13.8145 24.1106 15.6595 24.6609 17.5444 24.6522C19.4292 24.6437 21.2693 24.0764 22.8318 23.0223C24.3943 21.9681 25.6093 20.4744 26.3229 18.7298C27.0367 16.9853 27.2173 15.0684 26.8416 13.2213C26.4661 11.3742 25.5515 9.67995 24.2132 8.35262C24.0648 8.20549 23.8888 8.08905 23.6952 8.00995C23.5018 7.93086 23.2946 7.89065 23.0854 7.89162C22.8765 7.89259 22.6696 7.93472 22.4769 8.01563C22.2841 8.09651 22.1093 8.21458 21.962 8.36308C21.8149 8.51157 21.6985 8.6876 21.6195 8.8811C21.5403 9.07459 21.5002 9.28178 21.501 9.49082C21.502 9.69985 21.5442 9.90665 21.625 10.0994C21.706 10.2922 21.8241 10.4671 21.9725 10.6142C22.8649 11.4987 23.4752 12.6279 23.7258 13.8591C23.9765 15.0903 23.8563 16.3682 23.3808 17.5312C22.9052 18.6942 22.0955 19.6901 21.0539 20.3929C20.0125 21.0956 18.786 21.4738 17.5295 21.4797C16.273 21.4854 15.0431 21.1184 13.9952 20.4252C12.9472 19.7319 12.1284 18.7435 11.6422 17.5849C11.156 16.4264 11.0242 15.1497 11.2636 13.9162C11.503 12.6828 12.1028 11.548 12.987 10.6554L12.9875 10.6551Z" fill="white"/>
<path d="M24.1856 0.384976C23.1401 0.386867 22.1053 0.596113 21.1412 1.0006C20.1771 1.40509 19.3028 1.99679 18.5689 2.74145C18.2715 3.04088 17.8676 3.21013 17.4456 3.21204C17.0236 3.21397 16.618 3.04839 16.318 2.75166C14.8175 1.26839 12.79 0.440812 10.6802 0.450473C8.57033 0.460135 6.55047 1.30624 5.06366 2.80319C2.62903 5.26239 0.978158 8.3882 0.319716 11.7855C-0.338726 15.1827 0.0248226 18.699 1.36441 21.8896C2.704 25.0804 4.95949 27.8023 7.84575 29.7114C10.732 31.6204 14.1195 32.6309 17.58 32.615C21.0405 32.5993 24.4185 31.5578 27.2872 29.6225C30.156 27.6872 32.3865 24.9447 33.6968 21.742C35.0072 18.5392 35.3386 15.0198 34.6491 11.6286C33.9597 8.23752 32.2804 5.12692 29.8233 2.69008C29.0828 1.95218 28.2031 1.36851 27.2353 0.972836C26.2676 0.577164 25.231 0.377358 24.1856 0.384976ZM27.5823 4.95118C29.5949 6.94538 30.9709 9.49156 31.5363 12.2678C32.1017 15.044 31.8313 17.9254 30.759 20.548C29.6868 23.1705 27.8611 25.416 25.5125 27.001C23.164 28.5857 20.3983 29.4386 17.5651 29.4515C14.7319 29.4645 11.9585 28.6371 9.59562 27.0738C7.23271 25.5106 5.38641 23.2816 4.29023 20.6691C3.19405 18.0566 2.89721 15.1776 3.43723 12.3964C3.97725 9.61508 5.32989 7.0564 7.32409 5.04388C8.21627 4.14571 9.42824 3.63806 10.6942 3.63225C11.9602 3.62645 13.1767 4.12297 14.0771 5.01292C14.9773 5.90294 16.1937 6.39952 17.4596 6.39376C18.7255 6.38799 19.9373 5.88032 20.8293 4.98214C21.7207 4.08265 22.9329 3.57406 24.1993 3.56825C25.4656 3.56244 26.6824 4.05989 27.582 4.95118" fill="white"/>
<path d="M17.5001 17.9441C18.9284 17.9441 20.0862 16.7863 20.0862 15.358C20.0862 13.9298 18.9284 12.772 17.5001 12.772C16.0719 12.772 14.9141 13.9298 14.9141 15.358C14.9141 16.7863 16.0719 17.9441 17.5001 17.9441Z" fill="white"/>
</g>
</svg>
